<?xml version="1.0" encoding="UTF-8" standalone="no"?>
<svg
   xmlns:dc="http://purl.org/dc/elements/1.1/"
   xmlns:cc="http://creativecommons.org/ns#"
   xmlns:rdf="http://www.w3.org/1999/02/22-rdf-syntax-ns#"
   xmlns:svg="http://www.w3.org/2000/svg"
   xmlns="http://www.w3.org/2000/svg"
   viewBox="0 0 554.66669 232"
   height="232"
   width="554.66669"
   xml:space="preserve"
   id="svg2"
   version="1.1"><metadata
     id="metadata8"><rdf:RDF><cc:Work
         rdf:about=""><dc:format>image/svg+xml</dc:format><dc:type
           rdf:resource="http://purl.org/dc/dcmitype/StillImage" /></cc:Work></rdf:RDF></metadata><defs
     id="defs6"><clipPath
       id="clipPath18"
       clipPathUnits="userSpaceOnUse"><path
         id="path16"
         d="M 0,174 H 416 V 0 H 0 Z" /></clipPath><clipPath
       id="clipPath46"
       clipPathUnits="userSpaceOnUse"><path
         id="path44"
         d="M 0,174 H 416 V 0 H 0 Z" /></clipPath><clipPath
       id="clipPath70"
       clipPathUnits="userSpaceOnUse"><path
         id="path68"
         d="M 0,174 H 416 V 0 H 0 Z" /></clipPath></defs><g
     transform="matrix(1.3333333,0,0,-1.3333333,0,232)"
     id="g10"><g
       id="g12"><g
         clip-path="url(#clipPath18)"
         id="g14"><g
           transform="translate(185.7187,65.4619)"
           id="g20"><path
             id="path22"
             style="fill:#ea0728;fill-opacity:1;fill-rule:nonzero;stroke:none"
             d="m 0,0 c 0,-0.33 0.018,-0.687 0.055,-1.072 0.035,-0.385 0.127,-0.752 0.274,-1.1 0.146,-0.349 0.366,-0.633 0.659,-0.852 0.293,-0.22 0.715,-0.33 1.266,-0.33 0.695,0 1.319,0.247 1.869,0.742 0.55,0.495 1.063,0.998 1.539,1.512 l 1.32,-1.155 C 6.432,-3.024 5.745,-3.877 4.92,-4.812 4.096,-5.746 3.096,-6.636 1.924,-7.479 0.75,-8.321 -0.588,-9.027 -2.09,-9.595 c -1.504,-0.568 -3.208,-0.852 -5.113,-0.852 -1.613,0 -3.016,0.212 -4.207,0.633 -1.192,0.42 -2.199,0.989 -3.024,1.704 -0.824,0.714 -1.439,1.557 -1.841,2.529 -0.405,0.971 -0.606,2.007 -0.606,3.106 V 0 c -1.833,-1.979 -3.758,-3.722 -5.772,-5.224 -0.88,-0.66 -1.815,-1.301 -2.804,-1.924 -0.99,-0.623 -2.018,-1.182 -3.08,-1.677 -1.063,-0.495 -2.162,-0.889 -3.299,-1.182 -1.137,-0.293 -2.273,-0.44 -3.408,-0.44 -2.199,0 -4.078,0.394 -5.637,1.182 -1.557,0.787 -2.812,1.823 -3.765,3.107 -0.954,1.282 -1.65,2.729 -2.09,4.344 -0.44,1.612 -0.66,3.224 -0.66,4.837 v 34.035 c 0,0.33 -0.018,0.687 -0.055,1.072 -0.036,0.385 -0.129,0.751 -0.275,1.099 -0.147,0.348 -0.366,0.633 -0.659,0.853 -0.295,0.22 -0.715,0.33 -1.265,0.33 -0.66,0 -1.274,-0.248 -1.842,-0.742 -0.569,-0.495 -1.072,-1 -1.512,-1.513 l -1.375,1.156 c 0.551,0.769 1.238,1.621 2.063,2.556 0.824,0.935 1.822,1.822 2.996,2.666 1.173,0.843 2.519,1.548 4.041,2.117 1.521,0.568 3.216,0.853 5.086,0.853 1.613,0 3.024,-0.212 4.234,-0.633 1.209,-0.422 2.217,-0.989 3.023,-1.704 0.807,-0.715 1.412,-1.559 1.815,-2.529 0.403,-0.972 0.605,-2.007 0.605,-3.107 V 2.804 c 0,-0.514 0.082,-1.036 0.247,-1.568 0.165,-0.531 0.404,-1.016 0.715,-1.457 0.312,-0.439 0.705,-0.797 1.183,-1.072 0.475,-0.274 1.044,-0.412 1.704,-0.412 1.063,0 2.125,0.275 3.188,0.825 1.063,0.55 2.036,1.2 2.915,1.951 0.879,0.751 1.64,1.493 2.282,2.228 0.64,0.732 1.108,1.282 1.401,1.649 v 32.11 c 0,0.33 -0.018,0.687 -0.055,1.072 -0.037,0.385 -0.128,0.751 -0.275,1.099 -0.146,0.348 -0.366,0.633 -0.659,0.853 -0.294,0.22 -0.715,0.33 -1.265,0.33 -0.66,0 -1.273,-0.248 -1.842,-0.742 -0.568,-0.495 -1.072,-1 -1.511,-1.513 l -1.375,1.156 c 0.55,0.769 1.237,1.621 2.062,2.556 0.824,0.935 1.822,1.822 2.996,2.666 1.173,0.843 2.52,1.548 4.041,2.117 1.522,0.568 3.217,0.853 5.086,0.853 1.614,0 3.024,-0.212 4.235,-0.633 1.209,-0.422 2.216,-0.989 3.023,-1.704 0.806,-0.715 1.41,-1.559 1.815,-2.529 C -0.203,41.667 0,40.632 0,39.532 Z" /></g><g
           transform="translate(199.1338,125.502)"
           id="g24"><path
             id="path26"
             style="fill:#ea0728;fill-opacity:1;fill-rule:nonzero;stroke:none"
             d="m 0,0 c 0,1.026 0.229,2.007 0.687,2.942 0.459,0.935 1.1,1.75 1.925,2.447 0.825,0.696 1.778,1.246 2.859,1.649 1.081,0.403 2.262,0.605 3.546,0.605 1.246,0 2.41,-0.202 3.492,-0.605 1.08,-0.403 2.024,-0.953 2.832,-1.649 0.805,-0.697 1.437,-1.512 1.896,-2.447 0.457,-0.935 0.688,-1.916 0.688,-2.942 0,-1.063 -0.231,-2.053 -0.688,-2.969 -0.459,-0.917 -1.091,-1.714 -1.896,-2.391 -0.808,-0.679 -1.752,-1.219 -2.832,-1.622 -1.082,-0.404 -2.246,-0.605 -3.492,-0.605 -1.284,0 -2.465,0.201 -3.546,0.605 C 4.39,-6.579 3.437,-6.039 2.612,-5.36 1.787,-4.683 1.146,-3.886 0.687,-2.969 0.229,-2.053 0,-1.063 0,0 m 18.584,-64.659 c 0,-0.477 -0.083,-1.054 -0.247,-1.732 -0.165,-0.678 -0.551,-1.32 -1.154,-1.924 -0.606,-0.605 -1.477,-1.119 -2.613,-1.539 -1.136,-0.421 -2.676,-0.633 -4.618,-0.633 -1.943,0 -3.465,0.229 -4.564,0.687 -1.1,0.458 -1.924,0.998 -2.474,1.622 -0.55,0.623 -0.89,1.265 -1.017,1.924 -0.128,0.66 -0.193,1.191 -0.193,1.595 v 42.446 c 0,1.064 -0.247,1.988 -0.742,2.777 -0.494,0.788 -1.328,1.182 -2.502,1.182 -0.623,0 -1.154,-0.109 -1.594,-0.33 -0.439,-0.22 -0.917,-0.531 -1.429,-0.935 l -1.155,1.375 c 0.842,0.696 1.787,1.383 2.831,2.062 1.045,0.678 2.172,1.273 3.382,1.787 1.209,0.513 2.51,0.935 3.903,1.265 1.393,0.33 2.86,0.495 4.4,0.495 2.382,0 4.232,-0.321 5.553,-0.963 1.319,-0.642 2.29,-1.43 2.914,-2.364 0.623,-0.935 0.998,-1.934 1.127,-2.996 0.128,-1.064 0.192,-1.998 0.192,-2.805 z" /></g><g
           transform="translate(266.4873,93.9424)"
           id="g28"><path
             id="path30"
             style="fill:#ea0728;fill-opacity:1;fill-rule:nonzero;stroke:none"
             d="m 0,0 c -1.137,0 -2.089,0.174 -2.858,0.522 -0.771,0.348 -1.395,0.816 -1.871,1.403 -0.476,0.586 -0.825,1.236 -1.043,1.951 -0.221,0.715 -0.331,1.457 -0.331,2.228 0,0.989 0.063,1.942 0.192,2.858 0.129,0.916 0.146,1.741 0.056,2.475 -0.092,0.732 -0.376,1.319 -0.853,1.759 -0.477,0.44 -1.319,0.659 -2.529,0.659 -1.284,0 -2.639,-0.366 -4.069,-1.099 -1.429,-0.734 -2.73,-1.889 -3.904,-3.464 -1.173,-1.576 -2.144,-3.602 -2.914,-6.075 -0.77,-2.475 -1.154,-5.453 -1.154,-8.935 0,-3.849 0.357,-7.359 1.072,-10.529 0.715,-3.171 1.787,-5.875 3.217,-8.11 1.429,-2.237 3.207,-3.968 5.333,-5.196 2.126,-1.228 4.618,-1.842 7.477,-1.842 1.283,0 2.502,0.146 3.657,0.44 1.154,0.293 2.245,0.696 3.271,1.21 1.025,0.513 2.007,1.107 2.941,1.786 0.936,0.679 1.842,1.402 2.723,2.172 l 1.374,-1.319 c -0.844,-1.137 -1.925,-2.383 -3.244,-3.739 -1.319,-1.357 -2.914,-2.631 -4.784,-3.821 -1.869,-1.192 -4.05,-2.182 -6.542,-2.97 -2.493,-0.787 -5.333,-1.181 -8.523,-1.181 -3.189,0 -6.295,0.614 -9.319,1.841 -3.024,1.228 -5.71,3.015 -8.056,5.361 -2.345,2.345 -4.224,5.196 -5.634,8.55 -1.413,3.354 -2.118,7.175 -2.118,11.463 0,3.335 0.421,6.406 1.265,9.21 0.843,2.804 1.987,5.342 3.437,7.616 1.447,2.272 3.133,4.269 5.058,5.993 1.924,1.721 3.949,3.161 6.075,4.315 2.126,1.155 4.298,2.026 6.515,2.613 2.219,0.585 4.354,0.879 6.406,0.879 2.712,0 5.076,-0.312 7.093,-0.935 2.015,-0.623 3.692,-1.448 5.03,-2.474 1.338,-1.026 2.338,-2.209 2.997,-3.547 0.66,-1.338 0.99,-2.721 0.99,-4.15 C 6.433,6.854 6.296,5.837 6.021,4.866 5.745,3.895 5.342,3.052 4.812,2.337 4.279,1.622 3.61,1.054 2.804,0.633 1.997,0.211 1.063,0 0,0" /></g><g
           transform="translate(299.5859,98.0107)"
           id="g32"><path
             id="path34"
             style="fill:#ea0728;fill-opacity:1;fill-rule:nonzero;stroke:none"
             d="m 0,0 c 1.283,1.723 2.658,3.473 4.125,5.251 1.465,1.777 3.041,3.382 4.728,4.812 1.685,1.429 3.518,2.601 5.499,3.518 1.978,0.916 4.14,1.375 6.487,1.375 2.089,0 3.83,-0.413 5.223,-1.237 1.393,-0.825 2.52,-1.815 3.381,-2.97 0.862,-1.154 1.466,-2.355 1.815,-3.601 0.347,-1.247 0.522,-2.309 0.522,-3.189 0,-1.613 -0.211,-3.29 -0.632,-5.03 -0.421,-1.742 -1.136,-3.465 -2.144,-5.169 -1.009,-1.704 -2.356,-3.354 -4.041,-4.948 -1.687,-1.595 -3.813,-3.052 -6.379,-4.372 3.445,-7.294 6.8,-13.572 10.062,-18.832 3.262,-5.259 6.406,-9.585 9.43,-12.975 3.024,-3.39 5.928,-5.892 8.715,-7.505 2.785,-1.612 5.443,-2.419 7.973,-2.419 0.439,0 0.879,0.055 1.318,0.165 0.44,0.109 0.844,0.238 1.211,0.385 0.402,0.146 0.824,0.329 1.264,0.55 l 1.045,-1.925 c -0.991,-0.55 -1.998,-1.072 -3.024,-1.568 -1.027,-0.494 -2.199,-0.924 -3.519,-1.292 -1.32,-0.365 -2.841,-0.659 -4.564,-0.878 -1.724,-0.221 -3.776,-0.331 -6.158,-0.331 -2.163,0 -4.298,0.257 -6.405,0.77 -2.109,0.514 -4.225,1.43 -6.351,2.749 -2.126,1.319 -4.28,3.079 -6.46,5.278 -2.182,2.2 -4.418,4.986 -6.708,8.358 -2.292,3.372 -4.646,7.385 -7.065,12.041 -2.42,4.654 -4.931,10.097 -7.534,16.33 3.52,2.602 6.288,5.012 8.303,7.23 2.016,2.217 3.537,4.224 4.565,6.021 1.025,1.795 1.667,3.389 1.923,4.783 0.256,1.393 0.385,2.584 0.385,3.574 0,0.146 -0.019,0.393 -0.054,0.742 -0.038,0.348 -0.157,0.687 -0.358,1.017 -0.202,0.33 -0.495,0.623 -0.88,0.88 -0.385,0.256 -0.927,0.385 -1.622,0.385 -1.356,0 -2.73,-0.577 -4.123,-1.732 C 8.559,5.086 7.23,3.656 5.967,1.952 4.701,0.248 3.556,-1.586 2.529,-3.546 1.503,-5.507 0.66,-7.294 0,-8.907 v -28.37 c 0,-0.478 -0.082,-1.045 -0.247,-1.705 -0.165,-0.66 -0.55,-1.284 -1.154,-1.87 -0.605,-0.586 -1.486,-1.09 -2.64,-1.511 -1.154,-0.421 -2.703,-0.633 -4.646,-0.633 -1.943,0 -3.463,0.229 -4.563,0.687 -1.1,0.458 -1.916,0.998 -2.447,1.622 -0.532,0.624 -0.862,1.265 -0.99,1.924 -0.128,0.66 -0.192,1.192 -0.192,1.595 V 33.76 c 0,1.062 -0.248,1.988 -0.742,2.776 -0.495,0.788 -1.329,1.183 -2.502,1.183 -0.623,0 -1.164,-0.102 -1.622,-0.303 -0.458,-0.202 -0.944,-0.504 -1.457,-0.907 l -1.1,1.319 c 0.843,0.696 1.778,1.384 2.804,2.063 1.026,0.677 2.153,1.272 3.382,1.786 1.227,0.513 2.538,0.935 3.93,1.264 1.393,0.33 2.86,0.496 4.4,0.496 2.382,0 4.233,-0.322 5.554,-0.962 1.318,-0.642 2.289,-1.43 2.914,-2.365 0.622,-0.934 0.998,-1.924 1.127,-2.969 C -0.064,36.097 0,35.17 0,34.364 Z" /></g></g></g><text
       id="text38"
       style="font-style:italic;font-variant:normal;font-weight:bold;font-stretch:normal;font-size:20.61219978px;font-family:Lato;-inkscape-font-specification:Lato-BoldItalic;writing-mode:lr-tb;fill:#91a8a7;fill-opacity:1;fill-rule:nonzero;stroke:none"
       transform="matrix(1,0,0,-1,137.3252,26.1709)"><tspan
         id="tspan36"
         y="0"
         x="0 10.635895 15.93323 23.415459 31.495441 38.79216 42.770313 51.736622 56.869061 67.525566 75.605553 83.685532 87.663689 95.743668 106.91548 117.4277 128.35217 139.27664 144.57397 155.66333 165.66025">First class shopping!</tspan></text>
<g
       id="g40"><g
         clip-path="url(#clipPath46)"
         id="g42"><g
           transform="translate(97.1133,62.1348)"
           id="g48"><path
             id="path50"
             style="fill:#ea0728;fill-opacity:1;fill-rule:nonzero;stroke:none"
             d="m 0,0 c -1.229,-0.824 -2.428,-1.356 -3.602,-1.594 -1.172,-0.239 -2.18,-0.357 -3.023,-0.357 -0.88,0 -1.896,0.118 -3.052,0.357 -1.154,0.238 -2.346,0.77 -3.573,1.594 -1.229,0.825 -2.447,2.034 -3.656,3.629 -1.21,1.595 -2.282,3.739 -3.217,6.434 -0.936,2.693 -1.696,6.028 -2.282,10.006 -0.587,3.977 -0.88,8.75 -0.88,14.323 0,5.608 0.293,10.419 0.88,14.433 0.586,4.014 1.346,7.395 2.282,10.144 0.935,2.749 2.007,4.948 3.217,6.598 1.209,1.65 2.427,2.922 3.656,3.822 1.227,0.897 2.419,1.484 3.573,1.758 1.156,0.276 2.172,0.413 3.052,0.413 0.843,0 1.851,-0.137 3.023,-0.413 1.174,-0.274 2.373,-0.861 3.602,-1.758 1.229,-0.9 2.447,-2.172 3.656,-3.822 1.21,-1.65 2.282,-3.849 3.217,-6.598 C 7.808,56.22 8.568,52.839 9.154,48.825 9.74,44.811 10.035,40 10.035,34.392 10.035,28.783 9.74,24 9.154,20.041 9.075,19.504 8.991,18.981 8.905,18.468 8.512,18.634 8.122,18.802 7.726,18.953 6.915,19.254 6.145,19.609 5.293,19.767 1.997,20.668 -1.417,20.566 -4.419,19.736 -5.171,19.499 -5.902,19.256 -6.611,18.973 -7.312,18.631 -8,18.351 -8.646,17.937 -9.947,17.189 -11.144,16.223 -12.113,15.073 -6.32,13.937 -1.948,12.189 0.938,9.685 1.328,9.433 1.641,9.046 1.979,8.746 2.144,8.586 2.315,8.442 2.482,8.296 2.646,8.145 2.779,7.937 2.934,7.774 L 3.832,6.779 C 4.096,6.392 4.366,6.023 4.648,5.674 4.711,5.605 4.764,5.52 4.821,5.442 4.447,4.784 4.062,4.164 3.656,3.629 2.447,2.034 1.229,0.825 0,0 m 34.602,-11.471 c -0.998,0.895 -1.945,1.719 -2.813,2.608 -1.752,1.727 -3.291,3.429 -4.664,5.184 -2.389,3.044 -4.367,6.142 -6.225,9.437 2.163,2.859 3.959,6.217 5.381,10.077 1.926,5.224 2.887,11.409 2.887,18.557 0,7.148 -0.961,13.333 -2.887,18.556 -1.924,5.224 -4.527,9.54 -7.806,12.948 -3.282,3.41 -7.084,5.939 -11.41,7.588 -4.325,1.65 -8.889,2.475 -13.69,2.475 -4.803,0 -9.375,-0.825 -13.719,-2.475 -4.343,-1.649 -8.146,-4.178 -11.408,-7.588 -3.264,-3.408 -5.855,-7.724 -7.78,-12.948 -1.925,-5.223 -2.886,-11.408 -2.886,-18.556 0,-6.085 0.705,-11.464 2.116,-16.137 1.411,-4.674 3.345,-8.688 5.801,-12.042 2.455,-3.354 5.351,-6.057 8.687,-8.109 2.927,-1.803 6.053,-3.138 9.377,-4.007 3.53,-0.646 9.018,-1.402 13.818,-1.013 3.349,0.335 6.58,1.087 9.684,2.27 1.064,0.406 2.094,0.865 3.094,1.375 2.665,-3.694 6.124,-6.92 10.195,-9.105 0.686,-0.355 1.384,-0.684 2.071,-1.01 0.716,-0.288 1.438,-0.552 2.162,-0.791 1.454,-0.469 2.941,-0.81 4.444,-0.99 2.988,-0.333 6.078,-0.187 8.856,1.073 -1.219,0.872 -2.27,1.787 -3.285,2.623" /></g><g
           transform="translate(316,99)"
           id="g52"><path
             id="path54"
             style="fill:none;stroke:#2b090f;stroke-width:1;stroke-linecap:butt;stroke-linejoin:miter;stroke-miterlimit:10;stroke-dasharray:none;stroke-opacity:1"
             d="M 0,0 C 0,0 -12,10 25,12 L 15.099,5.124" /></g><g
           transform="translate(337.7109,109.3311)"
           id="g56"><path
             id="path58"
             style="fill:#ffc200;fill-opacity:1;fill-rule:nonzero;stroke:none"
             d="M 0,0 3.279,22.53 48.196,45.669 63.169,17.086 22.335,-3.331 Z" /></g></g></g><text
       id="text62"
       style="font-variant:normal;font-weight:900;font-stretch:normal;font-size:19.29210854px;font-family:'Lato Black';-inkscape-font-specification:Lato-Black;writing-mode:lr-tb;fill:#000000;fill-opacity:1;fill-rule:nonzero;stroke:none"
       transform="matrix(0.90604405,0.4231834,0.4231834,-0.90604405,354.6933,113.9096)"><tspan
         id="tspan60"
         y="0"
         x="0 12.655623 26.661694">BUY</tspan></text>
<g
       id="g64"><g
         clip-path="url(#clipPath70)"
         id="g66"><g
           transform="translate(127,43)"
           id="g72"><path
             id="path74"
             style="fill:#191919;fill-opacity:1;fill-rule:nonzero;stroke:none"
             d="m 0,0 c -2.301,-1.065 -4.639,-2.06 -7.003,-3.005 -1.178,-0.492 -2.378,-0.905 -3.589,-1.284 -1.207,-0.398 -2.421,-0.787 -3.64,-1.157 -2.424,-0.825 -4.93,-1.32 -7.428,-1.913 -2.494,-0.621 -5.053,-0.956 -7.614,-1.327 l -1.924,-0.278 c -0.646,-0.076 -1.296,-0.097 -1.946,-0.147 l -3.909,-0.258 -0.98,-0.061 -0.987,0.015 -1.976,0.033 c -1.32,0.047 -2.641,-0.008 -3.969,0.129 -5.306,0.398 -10.662,1.439 -15.869,3.281 -1.283,0.528 -2.585,0.996 -3.848,1.587 -1.246,0.637 -2.509,1.239 -3.734,1.924 -1.185,0.77 -2.395,1.494 -3.543,2.317 -1.11,0.885 -2.283,1.685 -3.325,2.656 -1.036,0.974 -2.098,1.92 -3.022,3.006 -0.471,0.532 -0.961,1.047 -1.413,1.594 l -1.302,1.683 c -1.702,2.279 -3.114,4.771 -4.277,7.334 -1.121,2.586 -2.013,5.248 -2.584,7.965 -0.276,1.36 -0.514,2.721 -0.666,4.09 -0.084,0.681 -0.14,1.367 -0.179,2.051 -0.037,0.697 -0.066,1.37 -0.077,1.974 -0.135,4.996 -0.164,10.005 -0.051,15.029 l 2.02,-2.085 c -2.29,0.641 -4.573,1.32 -6.853,2.031 -1.138,0.365 -2.279,0.718 -3.412,1.115 -1.134,0.396 -2.271,0.767 -3.4,1.201 1.205,0.101 2.4,0.138 3.6,0.201 1.2,0.064 2.393,0.083 3.587,0.115 2.388,0.044 4.771,0.057 7.148,0.031 0.906,-0.01 1.661,-0.638 1.87,-1.478 l 0.15,-0.607 c 1.212,-4.877 2.286,-9.77 3.249,-14.675 0.121,-0.636 0.245,-1.196 0.368,-1.735 l 0.407,-1.637 c 0.279,-1.086 0.627,-2.148 0.996,-3.194 0.766,-2.082 1.643,-4.096 2.736,-5.973 1.069,-1.888 2.264,-3.674 3.68,-5.28 l 1.043,-1.226 c 0.361,-0.396 0.754,-0.763 1.125,-1.146 0.721,-0.792 1.576,-1.445 2.374,-2.155 0.786,-0.723 1.704,-1.3 2.541,-1.966 0.885,-0.611 1.831,-1.144 2.735,-1.728 0.947,-0.531 1.928,-1.017 2.886,-1.537 0.984,-0.48 2.029,-0.862 3.039,-1.305 0.501,-0.229 1.024,-0.423 1.56,-0.591 l 1.592,-0.541 c 0.534,-0.175 1.054,-0.381 1.599,-0.532 l 1.655,-0.411 1.654,-0.436 0.826,-0.224 0.85,-0.158 3.412,-0.634 c 1.134,-0.242 2.314,-0.317 3.474,-0.487 1.17,-0.125 2.324,-0.346 3.515,-0.397 l 3.562,-0.259 1.79,-0.129 1.805,-0.042 c 2.407,-0.03 4.833,-0.2 7.274,-0.093 2.439,0.044 4.904,-0.015 7.369,0.141 2.461,0.151 4.968,0.107 7.457,0.295 C -5.078,-0.139 -2.559,-0.033 0,0" /></g><g
           transform="translate(63,39)"
           id="g76"><path
             id="path78"
             style="fill:#ea0728;fill-opacity:1;fill-rule:nonzero;stroke:none"
             d="m 0,0 c 0,-4.418 -3.582,-8 -8,-8 -4.418,0 -8,3.582 -8,8 0,4.418 3.582,8 8,8 4.418,0 8,-3.582 8,-8" /></g><g
           transform="translate(107,32)"
           id="g80"><path
             id="path82"
             style="fill:#ea0728;fill-opacity:1;fill-rule:nonzero;stroke:none"
             d="m 0,0 c 0,-4.418 -3.582,-8 -8,-8 -4.418,0 -8,3.582 -8,8 0,4.418 3.582,8 8,8 4.418,0 8,-3.582 8,-8" /></g></g></g></g></svg>